<?xml version="1.0" encoding="UTF-8" standalone="no"?>
<!-- Created with Inkscape (http://www.inkscape.org/) -->

<svg
   xmlns:dc="http://purl.org/dc/elements/1.1/"
   xmlns:cc="http://creativecommons.org/ns#"
   xmlns:rdf="http://www.w3.org/1999/02/22-rdf-syntax-ns#"
   xmlns:svg="http://www.w3.org/2000/svg"
   xmlns="http://www.w3.org/2000/svg"
   xmlns:sodipodi="http://sodipodi.sourceforge.net/DTD/sodipodi-0.dtd"
   xmlns:inkscape="http://www.inkscape.org/namespaces/inkscape"
   height="12.941895"
   width="7.7821655"
   version="1.1"
   id="svg1702"
   inkscape:version="0.48+devel r11876"
   sodipodi:docname="no_data.svg">
  <defs
     id="defs1714" />
  <sodipodi:namedview
     pagecolor="#ffffff"
     bordercolor="#666666"
     borderopacity="1"
     objecttolerance="10"
     gridtolerance="10"
     guidetolerance="10"
     inkscape:pageopacity="0"
     inkscape:pageshadow="2"
     inkscape:window-width="1198"
     inkscape:window-height="1518"
     id="namedview1712"
     showgrid="false"
     fit-margin-top="0"
     fit-margin-left="0"
     fit-margin-right="0"
     fit-margin-bottom="0"
     inkscape:zoom="36.589148"
     inkscape:cx="10.282175"
     inkscape:cy="1.9330598"
     inkscape:window-x="0"
     inkscape:window-y="19"
     inkscape:window-maximized="0"
     inkscape:current-layer="svg1702" />
  <metadata
     id="metadata1704">
    <rdf:RDF>
      <cc:Work
         rdf:about="">
        <dc:format>image/svg+xml</dc:format>
        <dc:type
           rdf:resource="http://purl.org/dc/dcmitype/StillImage" />
        <dc:title></dc:title>
      </cc:Work>
    </rdf:RDF>
  </metadata>
  <g
     style="font-size:17.4375px;font-variant:normal;font-weight:bold;font-stretch:condensed;writing-mode:lr-tb;fill:#6a6b6d;fill-opacity:1;fill-rule:nonzero;stroke:none;font-family:Univers LT Std 47 Cn Lt;-inkscape-font-specification:UniversLTStd-BoldCn"
     id="text174">
    <path
       d="M 4.8361816,8.6506348 1.7624817,8.6506348 1.7624817,8.233429 Q 1.7624817,7.5352478 2.043457,6.9988403 2.3244324,6.4539185 3.2269592,5.6195068 L 3.7718811,5.1256714 Q 4.2572021,4.6829224 4.4785767,4.2912598 4.7084656,3.8995972 4.7084656,3.5079346 4.7084656,2.9119263 4.2997742,2.5798645 3.8910828,2.2392883 3.158844,2.2392883 2.4691772,2.2392883 1.6688232,2.5287781 0.86846924,2.8097534 0,3.3717041 L 0,0.69818115 Q 1.0302429,0.34057617 1.8816833,0.17028809 2.7331238,0 3.5249634,0 5.602478,0 6.6923218,0.85144043 7.7821655,1.6943665 7.7821655,3.3206177 7.7821655,4.1550293 7.4501038,4.8191528 7.118042,5.474762 6.317688,6.2325439 L 5.7727661,6.717865 Q 5.1937866,7.2457581 5.0149841,7.5693054 4.8361816,7.8843384 4.8361816,8.2674866 L 4.8361816,8.6506348 Z M 1.7624817,9.9107666 4.8361816,9.9107666 4.8361816,12.941895 1.7624817,12.941895 1.7624817,9.9107666 Z"
       style=""
       id="path1726" />
  </g>
</svg>
