<?xml version="1.0" encoding="UTF-8" standalone="no"?>
<!-- Created with Inkscape (http://www.inkscape.org/) -->

<svg
   xmlns:dc="http://purl.org/dc/elements/1.1/"
   xmlns:cc="http://creativecommons.org/ns#"
   xmlns:rdf="http://www.w3.org/1999/02/22-rdf-syntax-ns#"
   xmlns:svg="http://www.w3.org/2000/svg"
   xmlns="http://www.w3.org/2000/svg"
   xmlns:sodipodi="http://sodipodi.sourceforge.net/DTD/sodipodi-0.dtd"
   xmlns:inkscape="http://www.inkscape.org/namespaces/inkscape"
   height="12.215008"
   width="20.062067"
   version="1.1"
   id="svg1651"
   inkscape:version="0.48+devel r11876"
   sodipodi:docname="partial.svg">
  <sodipodi:namedview
     pagecolor="#ffffff"
     bordercolor="#666666"
     borderopacity="1"
     objecttolerance="10"
     gridtolerance="10"
     guidetolerance="10"
     inkscape:pageopacity="0"
     inkscape:pageshadow="2"
     inkscape:window-width="1198"
     inkscape:window-height="1518"
     id="namedview1674"
     showgrid="false"
     fit-margin-top="0"
     fit-margin-left="0"
     fit-margin-right="0"
     fit-margin-bottom="0"
     inkscape:zoom="16.409091"
     inkscape:cx="11.115352"
     inkscape:cy="6.7380821"
     inkscape:window-x="0"
     inkscape:window-y="19"
     inkscape:window-maximized="0"
     inkscape:current-layer="g1660" />
  <defs
     id="defs1653">
    <clipPath
       id="clipPath1415"
       clipPathUnits="userSpaceOnUse">
      <path
         d="M 0,0 864,0 864,612 0,612 0,0 Z"
         id="path1656"
         inkscape:connector-curvature="0" />
    </clipPath>
  </defs>
  <metadata
     id="metadata1658">
    <rdf:RDF>
      <cc:Work
         rdf:about="">
        <dc:format>image/svg+xml</dc:format>
        <dc:type
           rdf:resource="http://purl.org/dc/dcmitype/StillImage" />
        <dc:title></dc:title>
      </cc:Work>
    </rdf:RDF>
  </metadata>
  <g
     transform="translate(110.24832,864.37692)"
     id="g1660">
    <g
       transform="matrix(1.25,0,0,-1.25,-1090,-485)"
       id="g1662">
      <g
         clip-path="url(#clipPath1415)"
         id="g1664">
        <g
           transform="translate(785,299)"
           id="g1666">
          <path
             d="M 0,0 C 0,0 3.22,-4.28 3.66,-3.72 5.12,-1.86 8.42,3.74 8.42,3.74"
             id="path1668"
             inkscape:connector-curvature="0"
             style="fill:none;stroke:#e89964;stroke-width:3" />
        </g>
      </g>
    </g>
    <g
       transform="matrix(1.25,0,0,-1.25,-93.5,-861)"
       id="g1670">
      <path
         d="M 0,0 -1.19,-0.711 -0.14,-1.851 -0.167,-1.881 -1.687,-1.541 -1.687,-2.951 -0.187,-2.631 -0.164,-2.651 -1.194,-3.841 -0.004,-4.541 0.472,-3.031 0.495,-3.031 0.961,-4.531 2.221,-3.851 1.171,-2.651 1.191,-2.631 2.651,-2.981 2.651,-1.541 1.161,-1.881 1.131,-1.851 2.161,-0.741 0.961,0.01 0.501,-1.52 0.478,-1.52 0.001,0 Z"
         id="path1672"
         inkscape:connector-curvature="0"
         style="fill:#e89964" />
    </g>
  </g>
</svg>
