<?xml version="1.0" encoding="UTF-8" standalone="no"?>
<!-- Created with Inkscape (http://www.inkscape.org/) -->

<svg
   xmlns:dc="http://purl.org/dc/elements/1.1/"
   xmlns:cc="http://creativecommons.org/ns#"
   xmlns:rdf="http://www.w3.org/1999/02/22-rdf-syntax-ns#"
   xmlns:svg="http://www.w3.org/2000/svg"
   xmlns="http://www.w3.org/2000/svg"
   xmlns:sodipodi="http://sodipodi.sourceforge.net/DTD/sodipodi-0.dtd"
   xmlns:inkscape="http://www.inkscape.org/namespaces/inkscape"
   viewBox="0 0 20.165918 40.123749"
   id="svg1789"
   version="1.1"
   inkscape:version="0.48+devel r11876"
   sodipodi:docname="doctor.svg">
  <defs
     id="defs1791">
    <clipPath
       clipPathUnits="userSpaceOnUse"
       id="clipPath884">
      <path
         inkscape:connector-curvature="0"
         d="M 497.14,170.395 513.273,170.395 513.273,202.494 497.14,202.494 497.14,170.395 Z"
         id="path886" />
    </clipPath>
    <clipPath
       clipPathUnits="userSpaceOnUse"
       id="clipPath896">
      <path
         inkscape:connector-curvature="0"
         d="M 497.14,165.046 516.026,165.046 516.026,202.494 497.14,202.494 497.14,165.046 Z"
         id="path898" />
    </clipPath>
    <clipPath
       clipPathUnits="userSpaceOnUse"
       id="clipPath884-0">
      <path
         inkscape:connector-curvature="0"
         d="M 497.14,170.395 513.273,170.395 513.273,202.494 497.14,202.494 497.14,170.395 Z"
         id="path886-0" />
    </clipPath>
  </defs>
  <sodipodi:namedview
     id="base"
     pagecolor="#ffffff"
     bordercolor="#666666"
     borderopacity="1.0"
     inkscape:pageopacity="0.0"
     inkscape:pageshadow="2"
     inkscape:zoom="11.2"
     inkscape:cx="-2.867519"
     inkscape:cy="29.85669"
     inkscape:document-units="px"
     inkscape:current-layer="layer1"
     showgrid="false"
     inkscape:window-width="1198"
     inkscape:window-height="1518"
     inkscape:window-x="0"
     inkscape:window-y="19"
     inkscape:window-maximized="0"
     fit-margin-top="0"
     fit-margin-left="0"
     fit-margin-right="0"
     fit-margin-bottom="0" />
  <metadata
     id="metadata1794">
    <rdf:RDF>
      <cc:Work
         rdf:about="">
        <dc:format>image/svg+xml</dc:format>
        <dc:type
           rdf:resource="http://purl.org/dc/dcmitype/StillImage" />
        <dc:title></dc:title>
      </cc:Work>
    </rdf:RDF>
  </metadata>
  <g
     inkscape:label="Layer 1"
     inkscape:groupmode="layer"
     id="layer1"
     transform="translate(-237.42336,-183.34432)">
    <g
       transform="matrix(1.25,0,0,-1.25,-384.00186,436.46182)"
       id="g880">
      <g
         id="g882"
         clip-path="url(#clipPath884-0)">
        <g
           id="g888"
           transform="translate(512.8372,187.1136)">
          <path
             inkscape:connector-curvature="0"
             d="M 0,0 C -0.882,2.402 -1.253,3.414 -1.669,4.555 -2.09,6.073 -2.09,5.694 -2.504,6.831 -2.922,7.972 -3.758,8.35 -4.591,8.35 L -6.683,8.35 -10.021,8.35 C -10.859,8.35 -12.11,7.972 -12.529,6.831 -12.946,5.694 -12.946,5.694 -13.366,4.555 -13.782,3.414 -14.619,1.137 -15.035,0 -15.452,-1.141 -16.289,-2.661 -15.035,-3.037 -13.782,-3.419 -12.946,-1.141 -12.529,0 -12.11,1.137 -12.11,1.137 -11.691,2.277 -11.604,2.485 -11.435,3.145 -11.113,3.034 -10.908,2.959 -11.177,2.346 -11.252,1.898 -11.376,1.154 -12.725,-9.517 -12.725,-9.517 L -11.042,-9.517 -11.042,-15.186 C -11.042,-15.947 -10.753,-16.719 -9.619,-16.719 -8.51,-16.719 -8.114,-15.947 -8.114,-15.186 L -8.114,-10.659 C -8.114,-9.895 -8.177,-9.529 -7.7,-9.529 -7.215,-9.529 -7.302,-9.895 -7.302,-10.659 L -7.302,-15.186 C -7.302,-15.659 -7.041,-16.694 -5.814,-16.694 -4.703,-16.694 -4.375,-15.694 -4.375,-15.186 L -4.375,-9.517 -2.482,-9.517 C -2.482,-9.517 -3.67,0.859 -3.995,2.022 -4.118,2.557 -4.127,3.027 -3.922,3.145 -3.64,3.214 -3.784,3.111 -3.338,1.897 -2.922,0.757 -2.922,0.757 -2.504,-0.38 -2.217,-1.167 -1.669,-3.037 -0.835,-3.037 0.421,-3.037 0.836,-2.278 0,0 M -7.415,8.891 C -5.777,8.891 -4.111,10.439 -4.111,12.078 -4.111,13.714 -5.698,15.381 -7.334,15.381 -8.973,15.381 -10.601,13.673 -10.601,12.036 -10.601,10.397 -9.051,8.891 -7.415,8.891"
             style="fill:#2dbac7;fill-opacity:1;fill-rule:nonzero;stroke:none"
             id="path890" />
        </g>
      </g>
    </g>
    <g
       transform="matrix(1.25,0,0,-1.25,-384.00186,436.46182)"
       id="g892">
      <g
         id="g894"
         clip-path="url(#clipPath896)">
        <g
           id="g900"
           transform="translate(507.3519,189.4437)">
          <path
             inkscape:connector-curvature="0"
             d="M 0,0 C 0,-0.651 -0.528,-1.179 -1.179,-1.179 -1.83,-1.179 -2.357,-0.651 -2.357,0 -2.357,0.651 -1.83,1.179 -1.179,1.179 -0.528,1.179 0,0.651 0,0"
             style="fill:#ffffff;fill-opacity:1;fill-rule:nonzero;stroke:none"
             id="path902" />
        </g>
        <g
           id="g904"
           transform="translate(502.888,195.8964)">
          <path
             inkscape:connector-curvature="0"
             d="M 0,0 C 0,0 0.496,-2.729 2.481,-2.791 4.466,-2.853 4.838,0.248 4.838,0.248 M 2.481,-2.791 C 2.481,-2.791 3.101,-3.349 3.225,-4.094 3.349,-4.838 3.225,-5.768 3.225,-5.768"
             style="fill:none;stroke:#ffffff;stroke-width:0.491;stroke-linecap:butt;stroke-linejoin:miter;stroke-miterlimit:10;stroke-opacity:1;stroke-dasharray:none"
             id="path906" />
        </g>
      </g>
    </g>
  </g>
</svg>
