<?xml version="1.0" encoding="UTF-8" standalone="no"?>
<svg id="svg2559" xmlns="http://www.w3.org/2000/svg" height="100%" width="100%" viewBox="0 0 20.508 39.591" version="1.1">
 <g id="layer1" transform="translate(-125.69 -564)">
  <path id="path954" d="m136.33 571.48c1.89 0 3.81-1.78 3.81-3.68 0-1.88-1.83-3.8-3.72-3.8s-3.76 1.96-3.76 3.85 1.78 3.63 3.67 3.63" fill="#48bfc5"/>
  <path id="path1002" d="m255.38 592.4c0.22 0.85-0.31 1.54-1.19 1.54h-3.13c-0.87 0-1.41-0.69-1.18-1.54l0.57-2.18c0.23-0.85 1.13-1.54 2-1.54h0.36c0.87 0 1.77 0.69 1.99 1.54l0.58 2.18z" fill="#48bfc5"/>
  <path id="path1006" d="m252.56 586.97v3.29" stroke="#48bfc5" stroke-miterlimit="10" stroke-width="1.2437" fill="none"/>
  <path id="path1010" d="m253.04 592.02c0 0.21-0.17 0.38-0.38 0.38-0.22 0-0.39-0.17-0.39-0.38v-1.95c0-0.21 0.17-0.39 0.39-0.39 0.21 0 0.38 0.18 0.38 0.39v1.95z" fill="#fff"/>
  <path id="path1014" d="m253.64 590.67c0.21 0 0.38 0.18 0.38 0.39s-0.17 0.39-0.38 0.39h-1.95c-0.22 0-0.39-0.18-0.39-0.39s0.17-0.39 0.39-0.39h1.95z" fill="#fff"/>
  <path id="path1018" d="m145.65 582.8c-1.09-2.99-1.55-4.25-2.07-5.67-0.52-1.88-0.52-1.41-1.04-2.83-0.52-1.41-1.56-1.88-2.59-1.88h-2.61-4.15c-1.04 0-2.59 0.47-3.11 1.88-0.52 1.42-0.52 1.42-1.04 2.83-0.52 1.42 0.24 1.32-0.28 2.74s-0.9 0.19 0.66 0.65c1.56 0.48 0.53 1.82 1.05 0.4 0.52-1.41 0.13 0.46 0.65-0.95 0.11-0.26 0.32-1.08 0.72-0.94 0.25 0.09-0.77 15.6-0.77 15.6h0.86v7.05c0 0.95 0.35 1.91 1.76 1.91 1.38 0 1.88-0.96 1.88-1.91v-5.63c0-0.95-0.08-1.4 0.51-1.4 0.6 0 0.5 0.45 0.5 1.4v5.63c0 0.59 0.32 1.88 1.85 1.88 1.38 0 1.78-1.25 1.78-1.88v-7.05h1.11s-0.8-15.59-0.54-15.74c0.35-0.09 0.17 0.04 0.72 1.55 0.52 1.42 0.52 1.42 1.04 2.83 0.36 0.98 1.04 3.3 2.08 3.3 1.56 0 2.07-0.94 1.03-3.77" fill="#48bfc5"/>
  <path id="path1022" d="m133.56 581.22c0.24 0.7-0.14 1.47-0.84 1.71l-3.07 1.04c-0.7 0.24-1.47-0.14-1.71-0.84l-1.95-5.74c-0.24-0.7 0.14-1.47 0.84-1.71l3.07-1.04c0.7-0.24 1.47 0.13 1.71 0.84l1.95 5.74z" fill="#fff"/>
  <path id="path1026" d="m133.56 581.22c0.24 0.7-0.14 1.47-0.84 1.71l-3.07 1.04c-0.7 0.24-1.47-0.14-1.71-0.84l-1.95-5.74c-0.24-0.7 0.14-1.47 0.84-1.71l3.07-1.04c0.7-0.24 1.47 0.13 1.71 0.84l1.95 5.74z" stroke="#48bfc5" stroke-miterlimit="10" stroke-width=".46125" fill="none"/>
  <path id="path1030" d="m129.09 574.63-2.01 0.68-0.07-0.21s0.01-0.41 0.9-0.69c0.83-0.27 1.1 0.01 1.1 0.01l0.08 0.21z" fill="#48bfc5"/>
  <path id="path1034" d="m129.09 574.63-2.01 0.68-0.07-0.21s0.01-0.41 0.9-0.69c0.83-0.27 1.1 0.01 1.1 0.01l0.08 0.21z" stroke="#fff" stroke-miterlimit="10" stroke-width=".0525" fill="none"/>
  <path id="path1038" d="m136.99 579.41c0 0.43-0.36 0.79-0.8 0.79-0.44 0.01-0.8-0.35-0.8-0.79v-4.02c0-0.44 0.35-0.79 0.79-0.79 0.45-0.01 0.8 0.35 0.8 0.79l0.01 4.02z" fill="#fff"/>
  <path id="path1042" d="m138.2 576.64c0.45-0.01 0.8 0.35 0.81 0.8 0 0.44-0.36 0.79-0.81 0.8l-4-0.01c-0.45 0-0.8-0.35-0.81-0.79 0-0.44 0.36-0.8 0.8-0.8h4.01z" fill="#fff"/>
  <path id="path1046" d="m128.27 580.54c0.65-0.23 1.34 0.04 1.54 0.61s-0.16 1.22-0.81 1.45l-1.14 0.4c-0.65 0.23-1.35-0.05-1.55-0.61-0.2-0.57 0.17-1.22 0.82-1.45l1.14-0.4z" fill="#48bfc5"/>
  <path id="path1050" d="m128.27 580.54c0.65-0.23 1.34 0.04 1.54 0.61s-0.16 1.22-0.81 1.45l-1.14 0.4c-0.65 0.23-1.35-0.05-1.55-0.61-0.2-0.57 0.17-1.22 0.82-1.45l1.14-0.4z" stroke="#fff" stroke-miterlimit="10" stroke-width=".19625" fill="none"/>
 </g>
</svg>
