<?xml version="1.0" encoding="UTF-8" standalone="no"?>
<svg id="svg2568" xmlns="http://www.w3.org/2000/svg" height="40.045" width="21.753" version="1.1">
 <g id="layer1" transform="translate(-166.27 619.09)">
  <path id="path1074" d="m187.48-599.97c-1.1-2.98-1.56-4.24-2.08-5.66-0.52-1.89-0.52-1.41-1.03-2.83-0.52-1.42-1.56-1.89-2.6-1.89h-2.6-4.15c-1.04 0-2.6 0.47-3.12 1.89s-0.52 1.42-1.04 2.83c-0.52 1.42-1.56 4.25-2.07 5.66-0.52 1.42-1.56 3.31 0 3.78 1.55 0.48 2.59-2.36 3.11-3.78 0.52-1.41 0.52-1.41 1.04-2.83 0.11-0.25 0.32-1.08 0.72-0.94 0.26 0.1-0.76 15.61-0.76 15.61h0.85v7.05c0 0.94 0.36 1.9 1.77 1.9 1.38 0 1.87-0.96 1.87-1.9v-5.63c0-0.95-0.08-1.41 0.52-1.41s0.49 0.46 0.49 1.41v5.63c0 0.58 0.32 1.87 1.85 1.87 1.38 0 1.79-1.24 1.79-1.87v-7.05h1.11s-0.8-15.6-0.55-15.75c0.35-0.08 0.17 0.05 0.73 1.56 0.52 1.41 0.52 1.41 1.04 2.83 0.35 0.98 1.03 3.3 2.07 3.3 1.56 0 2.08-0.94 1.04-3.78m-9.22-11.05c2.04 0 4.11-1.92 4.11-3.96s-1.98-4.11-4.01-4.11c-2.04 0-4.06 2.12-4.06 4.16s1.92 3.91 3.96 3.91" fill="#48bfc5"/>
  <g id="g3267">
   <path id="path1086" d="m180.66-602.86c0 0.81-0.66 1.47-1.47 1.47s-1.46-0.66-1.46-1.47 0.65-1.47 1.46-1.47 1.47 0.66 1.47 1.47" fill="#fff"/>
   <path id="path1090" d="m175.11-610.88s0.61 3.39 3.08 3.47c2.47 0.07 2.93-3.78 2.93-3.78m-2.93 3.78s0.77 0.69 0.93 1.62c0.15 0.92 0 2.08 0 2.08" stroke="#fff" stroke-miterlimit="10" stroke-width="0.61" fill="none"/>
  </g>
  <g id="g3231">
   <path id="path1102" d="m171.99-590.23c0.23 0.85-0.31 1.54-1.18 1.54h-3.13c-0.88 0-1.41-0.69-1.19-1.54l0.58-2.18c0.22-0.85 1.12-1.54 2-1.54h0.35c0.88 0 1.77 0.69 2 1.54l0.57 2.18z" fill="#48bfc5"/>
   <path id="path1106" d="m169.17-595.66v3.29" stroke="#48bfc5" stroke-miterlimit="10" stroke-width="1.2437" fill="none"/>
   <path id="path1110" d="m169.66-590.61c0 0.21-0.18 0.38-0.39 0.38s-0.39-0.17-0.39-0.38v-1.95c0-0.22 0.18-0.39 0.39-0.39s0.39 0.17 0.39 0.39v1.95z" fill="#fff"/>
   <path id="path1114" d="m170.25-591.96c0.21 0 0.39 0.18 0.39 0.39s-0.18 0.39-0.39 0.39h-1.95c-0.21 0-0.39-0.18-0.39-0.39s0.18-0.39 0.39-0.39h1.95z" fill="#fff"/>
  </g>
 </g>
</svg>
